<svg width="153" height="77" viewBox="0 0 153 77" fill="none" xmlns="http://www.w3.org/2000/svg">
    <g filter="url(#filter0_d_0_1)">
        <mask id="mask0_0_1" style="mask-type:luminance" maskUnits="userSpaceOnUse" x="4" y="0" width="69" height="69">
            <path d="M73 0H4V69H73V0Z" fill="white"/>
        </mask>
        <g mask="url(#mask0_0_1)">
            <path d="M4 0.000244141V25.6674L19.7134 13.8677L4 0.000244141Z" fill="#6499E9"/>
            <path d="M4 68.9995L19.7134 55.1352L4 43.3445V68.9995Z" fill="#6499E9"/>
            <path d="M33.4652 30.9833L73.0007 -0.000732422H49.957L4 34.5069L33.4652 30.9833Z" fill="#11009E"/>
            <path d="M4 34.5071L49.957 69.0014H73.0007L33.4652 38.0115L4 34.5071Z" fill="#11009E"/>
        </g>
    </g>
    <g filter="url(#filter1_d_0_1)">
        <path d="M69.8625 41.775H78.275V42.825C78.275 44.0083 78.075 45.1125 77.675 46.1375C77.2833 47.1625 76.7208 48.0625 75.9875 48.8375C75.2542 49.6125 74.3792 50.2167 73.3625 50.65C72.3458 51.0833 71.2208 51.3 69.9875 51.3C68.7125 51.3 67.5542 51.0833 66.5125 50.65C65.4792 50.2083 64.5875 49.5958 63.8375 48.8125C63.0875 48.0292 62.5125 47.1208 62.1125 46.0875C61.7125 45.0458 61.5125 43.9292 61.5125 42.7375C61.5125 41.5542 61.7125 40.4458 62.1125 39.4125C62.5125 38.3708 63.0875 37.4625 63.8375 36.6875C64.5875 35.9042 65.4792 35.2958 66.5125 34.8625C67.5542 34.4208 68.7125 34.2 69.9875 34.2C71.0292 34.2 71.9458 34.3125 72.7375 34.5375C73.5375 34.7625 74.225 35.0625 74.8 35.4375C75.375 35.8125 75.8625 36.225 76.2625 36.675C76.6625 37.1167 76.9958 37.55 77.2625 37.975L73.7125 39.65C73.3708 39.125 72.9042 38.6667 72.3125 38.275C71.7292 37.8833 70.9542 37.6875 69.9875 37.6875C69.3125 37.6875 68.6917 37.8208 68.125 38.0875C67.5667 38.3542 67.0833 38.7208 66.675 39.1875C66.2667 39.6458 65.95 40.1833 65.725 40.8C65.5083 41.4083 65.4 42.0542 65.4 42.7375C65.4 43.4292 65.5083 44.0792 65.725 44.6875C65.95 45.2958 66.2667 45.8333 66.675 46.3C67.0833 46.7667 67.5667 47.1333 68.125 47.4C68.6917 47.6583 69.3125 47.7875 69.9875 47.7875C70.5792 47.7875 71.1167 47.7125 71.6 47.5625C72.0833 47.4125 72.5 47.1958 72.85 46.9125C73.2083 46.6292 73.4875 46.2958 73.6875 45.9125C73.8958 45.5208 74.0208 45.0917 74.0625 44.625H69.8625V41.775ZM80.4213 34.5H90.9588V37.775H84.1463V41.1375H90.8963V44.3125H84.1463V47.725H90.9588V51H80.4213V34.5ZM97.2383 37.925L97.5133 37.975V51H93.7758V34.5H98.8758L105.563 47.5L105.288 47.55V34.5H109.026V51H103.901L97.2383 37.925ZM118.746 46.925V43.7H125.183V46.925H118.746ZM134.773 34.5H148.323L140.135 47.725H147.785V51H133.61L141.785 37.775H134.773V34.5Z" fill="#11009E"/>
    </g>
    <defs>
        <filter id="filter0_d_0_1" x="0" y="0" width="77" height="77" filterUnits="userSpaceOnUse" color-interpolation-filters="sRGB">
            <feFlood flood-opacity="0" result="BackgroundImageFix"/>
            <feColorMatrix in="SourceAlpha" type="matrix" values="0 0 0 0 0 0 0 0 0 0 0 0 0 0 0 0 0 0 127 0" result="hardAlpha"/>
            <feOffset dy="4"/>
            <feGaussianBlur stdDeviation="2"/>
            <feComposite in2="hardAlpha" operator="out"/>
            <feColorMatrix type="matrix" values="0 0 0 0 0 0 0 0 0 0 0 0 0 0 0 0 0 0 0.25 0"/>
            <feBlend mode="normal" in2="BackgroundImageFix" result="effect1_dropShadow_0_1"/>
            <feBlend mode="normal" in="SourceGraphic" in2="effect1_dropShadow_0_1" result="shape"/>
        </filter>
        <filter id="filter1_d_0_1" x="57.5125" y="34.2" width="94.8103" height="25.1001" filterUnits="userSpaceOnUse" color-interpolation-filters="sRGB">
            <feFlood flood-opacity="0" result="BackgroundImageFix"/>
            <feColorMatrix in="SourceAlpha" type="matrix" values="0 0 0 0 0 0 0 0 0 0 0 0 0 0 0 0 0 0 127 0" result="hardAlpha"/>
            <feOffset dy="4"/>
            <feGaussianBlur stdDeviation="2"/>
            <feComposite in2="hardAlpha" operator="out"/>
            <feColorMatrix type="matrix" values="0 0 0 0 0 0 0 0 0 0 0 0 0 0 0 0 0 0 0.25 0"/>
            <feBlend mode="normal" in2="BackgroundImageFix" result="effect1_dropShadow_0_1"/>
            <feBlend mode="normal" in="SourceGraphic" in2="effect1_dropShadow_0_1" result="shape"/>
        </filter>
    </defs>
</svg>
